<?xml version="1.0" encoding="utf-8"?>
<!-- Generator: Adobe Illustrator 13.0.0, SVG Export Plug-In . SVG Version: 6.00 Build 14948)  -->
<!DOCTYPE svg PUBLIC "-//W3C//DTD SVG 1.1//EN" "http://www.w3.org/Graphics/SVG/1.1/DTD/svg11.dtd">
<svg version="1.1" id="Calque_1" xmlns="http://www.w3.org/2000/svg" xmlns:xlink="http://www.w3.org/1999/xlink" x="0px" y="0px"
	 width="112.714px" height="29.916px" viewBox="0 0 112.714 29.916" enable-background="new 0 0 112.714 29.916"
	 xml:space="preserve">
<g>
	<path fill="#FFFFFF" d="M10.784,11.035c0.568-0.196,1.011-0.414,1.329-0.655c0.317-0.24,0.46-0.458,0.427-0.654
		c-0.033-0.197-0.324-0.295-0.87-0.295c-0.853,0-1.571-0.202-2.149-0.606C8.939,8.421,8.513,7.914,8.239,7.303
		C7.966,6.691,7.867,6.024,7.944,5.304c0.076-0.721,0.361-1.386,0.854-1.997c0.492-0.611,1.192-1.12,2.101-1.523
		c0.907-0.403,2.062-0.605,3.462-0.605c0.788,0,1.658,0.043,2.609,0.13c0.952,0.088,1.931,0.197,2.938,0.327
		c-0.131,0.176-0.4,0.541-0.805,1.098c-0.405,0.557-0.875,1.211-1.411,1.965c-0.536,0.752-1.116,1.561-1.74,2.422
		c-0.624,0.863-1.214,1.687-1.772,2.473c-0.558,0.786-1.056,1.49-1.493,2.112c-0.438,0.622-0.744,1.064-0.919,1.326
		c-0.7,1.026-1.378,2.009-2.035,2.947c-0.656,0.938-1.324,1.758-2.002,2.456c-0.678,0.699-1.378,1.256-2.101,1.669
		c-0.722,0.416-1.488,0.623-2.297,0.623c-0.373,0-0.717-0.037-1.034-0.114c-0.317-0.077-0.607-0.163-0.87-0.261
		c-0.263-0.101-0.487-0.191-0.673-0.279c-0.187-0.087-0.345-0.143-0.477-0.164c-0.175,0-0.268,0.104-0.279,0.312
		s0.061,0.409,0.213,0.604c0.657,0.831,1.63,1.245,2.921,1.245s2.473-0.19,3.545-0.573c1.072-0.382,2.101-0.961,3.085-1.735
		c0.985-0.774,1.958-1.751,2.921-2.93c0.962-1.181,1.98-2.576,3.052-4.192c0.197-0.284,0.481-0.693,0.854-1.229
		c0.372-0.534,0.793-1.134,1.264-1.801c0.47-0.666,0.962-1.364,1.477-2.095c0.514-0.731,1.018-1.436,1.51-2.112
		s0.947-1.305,1.362-1.883c0.416-0.579,0.755-1.054,1.018-1.425c0.809,0.131,1.581,0.257,2.314,0.376
		c0.732,0.12,1.405,0.229,2.019,0.327c0.612,0.099,1.149,0.175,1.608,0.229c0.459,0.055,0.81,0.082,1.051,0.082
		c0.459,0,0.924-0.164,1.395-0.491s0.843-0.682,1.116-1.064c0.273-0.382,0.405-0.737,0.394-1.064C33.108,0.164,32.851,0,32.348,0
		H14.427c-1.97,0-3.627,0.277-4.972,0.834C8.108,1.391,7.042,2.09,6.254,2.931c-0.788,0.84-1.308,1.751-1.559,2.734
		c-0.251,0.981-0.251,1.894,0,2.734c0.251,0.841,0.744,1.539,1.477,2.097c0.732,0.557,1.668,0.834,2.806,0.834
		C9.612,11.33,10.214,11.231,10.784,11.035z"/>
	<path fill="#FFFFFF" d="M25.025,10.789c-0.044-0.207-0.219-0.311-0.524-0.311h-0.952c-0.307,0-0.646,0.099-1.018,0.295
		c-0.372,0.197-0.689,0.458-0.952,0.786c-0.131,0.154-0.377,0.481-0.738,0.983c-0.361,0.502-0.76,1.063-1.198,1.686
		c-0.438,0.622-0.87,1.256-1.296,1.899s-0.771,1.184-1.034,1.62c-0.416,0.678-0.694,1.3-0.836,1.867
		c-0.143,0.567-0.154,1.043-0.033,1.425c0.12,0.382,0.372,0.66,0.754,0.836c0.383,0.174,0.892,0.195,1.526,0.064
		s1.357-0.479,2.166-1.048c0.81-0.566,1.608-1.223,2.396-1.966c-0.175,0.481-0.268,0.924-0.279,1.326
		c-0.012,0.405,0.06,0.75,0.213,1.034c0.153,0.281,0.399,0.49,0.739,0.62c0.338,0.132,0.771,0.143,1.296,0.033
		c0.48-0.087,1.006-0.311,1.575-0.672c0.568-0.359,1.154-0.779,1.756-1.261c0.602-0.479,1.198-1.004,1.789-1.571
		c0.591-0.567,1.132-1.112,1.625-1.638c0.492-0.524,0.914-1.004,1.263-1.44c0.35-0.437,0.602-0.764,0.756-0.983
		c0.152-0.262,0.24-0.502,0.262-0.721c0.021-0.218-0.016-0.376-0.115-0.475c-0.099-0.098-0.252-0.098-0.459,0
		c-0.208,0.098-0.455,0.322-0.739,0.672c-0.438,0.546-0.974,1.146-1.608,1.8c-0.635,0.656-1.264,1.267-1.887,1.835
		c-0.624,0.568-1.198,1.026-1.723,1.374c-0.525,0.351-0.898,0.492-1.116,0.427c-0.153-0.043-0.208-0.214-0.165-0.507
		c0.044-0.296,0.273-0.77,0.689-1.426c0.307-0.522,0.678-1.097,1.117-1.719c0.438-0.623,0.864-1.223,1.279-1.801
		c0.416-0.578,0.782-1.075,1.1-1.49c0.317-0.414,0.52-0.676,0.607-0.786c0.241-0.305,0.334-0.562,0.279-0.77
		c-0.054-0.207-0.235-0.311-0.542-0.311h-0.918c-0.307,0-0.646,0.099-1.018,0.295c-0.373,0.197-0.689,0.458-0.952,0.786
		c-0.109,0.154-0.328,0.442-0.656,0.868c-0.329,0.426-0.689,0.923-1.083,1.49c-0.459,0.547-1.001,1.147-1.624,1.802
		c-0.624,0.655-1.242,1.261-1.854,1.818c-0.613,0.556-1.171,1.003-1.674,1.342c-0.504,0.338-0.865,0.475-1.083,0.409
		c-0.175-0.043-0.241-0.214-0.196-0.507c0.043-0.296,0.272-0.77,0.689-1.426c0.328-0.522,0.71-1.097,1.148-1.719
		c0.438-0.623,0.858-1.223,1.264-1.801c0.404-0.578,0.765-1.075,1.083-1.49c0.317-0.414,0.52-0.676,0.607-0.786
		C24.971,11.254,25.069,10.998,25.025,10.789z"/>
	<path fill="#FFFFFF" d="M41.756,15.227c-0.514,0.371-1.121,0.677-1.821,0.918c0.087-0.241,0.361-0.612,0.82-1.113
		c0.459-0.503,0.919-1.038,1.379-1.606c0.459-0.567,0.82-1.118,1.083-1.654c0.263-0.534,0.251-0.955-0.033-1.26
		c-0.154-0.152-0.421-0.218-0.804-0.197c-0.383,0.022-0.843,0.143-1.379,0.36c-0.536,0.218-1.132,0.53-1.789,0.934
		c-0.656,0.404-1.324,0.899-2.002,1.489l1.148-1.539c0.241-0.305,0.333-0.562,0.279-0.77c-0.055-0.207-0.235-0.311-0.542-0.311
		h-0.951c-0.307,0-0.646,0.099-1.018,0.295c-0.373,0.197-0.679,0.458-0.919,0.786l-6.597,9.333
		c-0.241,0.306-0.339,0.568-0.296,0.787c0.044,0.218,0.219,0.326,0.525,0.326h0.952c0.307,0,0.645-0.104,1.018-0.311
		c0.372-0.207,0.689-0.475,0.952-0.803c0.175-0.262,0.382-0.557,0.624-0.885c0.196-0.283,0.426-0.615,0.689-0.999
		c0.263-0.38,0.547-0.79,0.854-1.227c0.306-0.438,0.694-0.906,1.166-1.408c0.47-0.502,0.957-0.978,1.459-1.424
		c0.504-0.448,1.002-0.841,1.494-1.181c0.493-0.337,0.914-0.55,1.264-0.638c-0.219,0.306-0.509,0.678-0.87,1.113
		c-0.361,0.438-0.705,0.88-1.034,1.328c-0.328,0.447-0.607,0.855-0.836,1.227c-0.229,0.372-0.323,0.645-0.279,0.818
		c0.065,0.285,0.377,0.46,0.935,0.524c0.558,0.066,1.231-0.017,2.019-0.246c0.788-0.229,1.642-0.627,2.561-1.194
		c0.919-0.568,1.783-1.342,2.593-2.325c0.219-0.284,0.333-0.512,0.344-0.688c0.012-0.174-0.049-0.283-0.18-0.328
		c-0.132-0.043-0.307-0.027-0.525,0.05c-0.22,0.077-0.449,0.224-0.689,0.442C42.801,14.398,42.27,14.856,41.756,15.227z"/>
	<path fill="#FFFFFF" d="M41.709,17.208c-0.525,0.951-0.82,1.78-0.886,2.489c-0.066,0.711,0.066,1.271,0.394,1.688
		c0.328,0.415,0.799,0.621,1.412,0.621c0.48,0,0.995-0.119,1.542-0.36c0.546-0.239,1.083-0.545,1.608-0.917
		c0.525-0.37,1.029-0.768,1.51-1.194c0.481-0.426,0.918-0.836,1.313-1.229c-0.635,0.787-1.274,1.6-1.92,2.44
		c-0.646,0.841-1.253,1.643-1.821,2.406h-5.416c-0.395,0-0.629,0.099-0.706,0.295c-0.076,0.197-0.022,0.408,0.164,0.639
		c0.187,0.229,0.482,0.442,0.887,0.638c0.405,0.197,0.892,0.295,1.46,0.295h2.233c-0.373,0.524-0.684,0.978-0.936,1.359
		c-0.252,0.381-0.421,0.66-0.509,0.835c-0.196,0.393-0.246,0.791-0.147,1.196c0.099,0.402,0.268,0.735,0.508,0.998
		c0.241,0.263,0.509,0.426,0.804,0.491c0.295,0.065,0.531-0.055,0.706-0.36c0.481-0.765,0.957-1.528,1.428-2.292
		c0.471-0.765,0.946-1.507,1.428-2.228h4.562c0.438,0,0.695-0.098,0.771-0.295c0.076-0.195,0-0.408-0.23-0.638
		c-0.23-0.23-0.602-0.441-1.115-0.639c-0.515-0.196-1.132-0.295-1.854-0.295h-0.886c1.05-1.572,2.045-3.052,2.987-4.437
		c0.94-1.387,1.777-2.594,2.511-3.62c0.733-1.025,1.329-1.854,1.789-2.488c0.459-0.633,0.722-0.983,0.788-1.048
		c0.241-0.305,0.334-0.562,0.279-0.77c-0.055-0.207-0.235-0.311-0.542-0.311h-0.952c-0.524,0-1.072,0.252-1.641,0.753
		c-0.394-0.349-0.902-0.583-1.526-0.704c-0.624-0.12-1.329-0.077-2.117,0.132c-0.788,0.207-1.641,0.595-2.56,1.163
		c-0.919,0.568-1.882,1.342-2.889,2.324C43.044,15.238,42.235,16.258,41.709,17.208z M47.174,13.966
		c0.579-0.513,1.182-0.955,1.805-1.326c0.624-0.371,1.247-0.623,1.872-0.754c0.623-0.13,1.186-0.053,1.69,0.229
		c-0.241,0.329-0.613,0.792-1.116,1.392c-0.503,0.602-1.056,1.24-1.657,1.917c-0.602,0.677-1.226,1.32-1.871,1.931
		c-0.645,0.611-1.23,1.081-1.756,1.408c-0.7,0.438-1.209,0.623-1.525,0.557c-0.318-0.065-0.482-0.288-0.493-0.67
		c-0.012-0.382,0.125-0.863,0.41-1.442c0.284-0.578,0.678-1.163,1.182-1.752C46.107,14.977,46.594,14.479,47.174,13.966z"/>
	<path fill="#FFFFFF" d="M62.542,10.789c-0.043-0.207-0.219-0.311-0.525-0.311h-0.951c-0.307,0-0.646,0.099-1.018,0.295
		c-0.372,0.197-0.689,0.458-0.952,0.786c-0.13,0.154-0.378,0.481-0.738,0.983c-0.361,0.502-0.76,1.063-1.198,1.686
		c-0.438,0.622-0.871,1.256-1.297,1.899c-0.427,0.644-0.771,1.184-1.034,1.62c-0.416,0.678-0.695,1.3-0.837,1.867
		c-0.142,0.567-0.152,1.043-0.033,1.425c0.121,0.382,0.372,0.66,0.755,0.836c0.382,0.174,0.891,0.195,1.526,0.064
		c0.635-0.131,1.357-0.479,2.166-1.048c0.809-0.566,1.608-1.223,2.396-1.966c-0.176,0.481-0.269,0.924-0.279,1.326
		c-0.011,0.405,0.061,0.75,0.214,1.034c0.153,0.281,0.399,0.49,0.738,0.62c0.339,0.132,0.771,0.143,1.296,0.033
		c0.481-0.087,1.007-0.311,1.576-0.672c0.568-0.359,1.153-0.779,1.756-1.261c0.602-0.479,1.198-1.004,1.789-1.571
		s1.132-1.112,1.624-1.638c0.493-0.524,0.914-1.004,1.264-1.44c0.351-0.437,0.602-0.764,0.755-0.983
		c0.153-0.262,0.24-0.502,0.264-0.721c0.021-0.218-0.018-0.376-0.116-0.475c-0.098-0.098-0.252-0.098-0.459,0
		c-0.208,0.098-0.454,0.322-0.738,0.672c-0.438,0.546-0.974,1.146-1.608,1.8c-0.635,0.656-1.264,1.267-1.888,1.835
		c-0.623,0.568-1.197,1.026-1.723,1.374c-0.525,0.351-0.897,0.492-1.116,0.427c-0.153-0.043-0.208-0.214-0.164-0.507
		c0.044-0.296,0.273-0.77,0.689-1.426c0.306-0.522,0.678-1.097,1.116-1.719c0.438-0.623,0.864-1.223,1.279-1.801
		c0.415-0.578,0.782-1.075,1.1-1.49c0.317-0.414,0.52-0.676,0.607-0.786c0.241-0.305,0.334-0.562,0.279-0.77
		c-0.056-0.207-0.235-0.311-0.541-0.311h-0.92c-0.307,0-0.646,0.099-1.017,0.295c-0.373,0.197-0.69,0.458-0.953,0.786
		c-0.11,0.154-0.327,0.442-0.656,0.868c-0.328,0.426-0.688,0.923-1.083,1.49c-0.459,0.547-1.001,1.147-1.624,1.802
		c-0.624,0.655-1.242,1.261-1.854,1.818c-0.613,0.556-1.172,1.003-1.674,1.342c-0.504,0.338-0.864,0.475-1.083,0.409
		c-0.175-0.043-0.241-0.214-0.197-0.507c0.044-0.296,0.273-0.77,0.689-1.426c0.328-0.522,0.711-1.097,1.149-1.719
		c0.438-0.623,0.859-1.223,1.264-1.801c0.404-0.578,0.765-1.075,1.083-1.49c0.316-0.414,0.52-0.676,0.606-0.786
		C62.487,11.254,62.584,10.998,62.542,10.789z"/>
	<path fill="#FFFFFF" d="M78.025,10.496c-0.602-0.077-1.269-0.011-2.003,0.196c-0.732,0.208-1.498,0.546-2.297,1.015
		c-0.799,0.47-1.57,1.064-2.313,1.785c-0.767,0.699-1.406,1.43-1.921,2.193c-0.515,0.765-0.902,1.507-1.164,2.228
		c-0.264,0.721-0.378,1.38-0.346,1.981c0.032,0.6,0.235,1.098,0.607,1.49c0.35,0.393,0.831,0.621,1.444,0.687
		c0.612,0.065,1.28-0.005,2.002-0.213c0.723-0.206,1.482-0.545,2.281-1.014c0.799-0.471,1.569-1.055,2.313-1.752
		c0.767-0.7,1.412-1.431,1.938-2.195c0.524-0.765,0.919-1.507,1.182-2.227c0.263-0.72,0.372-1.381,0.327-1.981
		c-0.044-0.601-0.24-1.097-0.59-1.49C79.114,10.807,78.626,10.571,78.025,10.496z M74.89,18.404
		c-0.438,0.415-0.859,0.748-1.264,0.999c-0.404,0.25-0.776,0.409-1.115,0.474c-0.34,0.065-0.618,0.022-0.838-0.13
		c-0.196-0.152-0.312-0.398-0.345-0.738c-0.032-0.338,0.017-0.729,0.148-1.179c0.131-0.445,0.333-0.933,0.606-1.456
		c0.273-0.524,0.618-1.059,1.035-1.605c0.414-0.546,0.847-1.025,1.296-1.44c0.447-0.414,0.875-0.754,1.28-1.016
		c0.404-0.263,0.776-0.426,1.115-0.491c0.34-0.065,0.618-0.022,0.838,0.13c0.196,0.153,0.313,0.399,0.345,0.737
		s-0.017,0.736-0.148,1.195c-0.131,0.458-0.34,0.949-0.624,1.474c-0.283,0.524-0.635,1.058-1.05,1.604
		C75.753,17.508,75.329,17.989,74.89,18.404z"/>
	<path fill="#FFFFFF" d="M87.827,10.789c-0.056-0.207-0.236-0.311-0.542-0.311h-0.951c-0.309,0-0.646,0.099-1.019,0.295
		c-0.373,0.197-0.678,0.458-0.918,0.786c-0.132,0.154-0.385,0.481-0.756,0.983c-0.372,0.502-0.776,1.063-1.214,1.686
		c-0.438,0.622-0.869,1.256-1.297,1.899c-0.426,0.644-0.76,1.184-1,1.62c-0.351,0.59-0.593,1.163-0.723,1.72
		c-0.132,0.557-0.148,1.044-0.049,1.458c0.097,0.415,0.322,0.72,0.672,0.917c0.35,0.196,0.843,0.229,1.478,0.098
		c0.481-0.087,1.006-0.311,1.574-0.672c0.57-0.359,1.155-0.779,1.757-1.261c0.601-0.479,1.199-1.004,1.789-1.571
		c0.591-0.567,1.133-1.112,1.625-1.638c0.491-0.524,0.913-1.004,1.263-1.44c0.35-0.437,0.603-0.764,0.756-0.983
		c0.174-0.262,0.273-0.502,0.295-0.721c0.021-0.218-0.017-0.376-0.113-0.475c-0.1-0.098-0.253-0.098-0.461,0
		c-0.209,0.098-0.454,0.322-0.74,0.672c-0.458,0.546-1.006,1.146-1.641,1.8c-0.634,0.656-1.262,1.267-1.887,1.835
		c-0.623,0.568-1.192,1.026-1.707,1.374c-0.514,0.351-0.881,0.492-1.099,0.427c-0.176-0.043-0.241-0.214-0.196-0.507
		c0.042-0.296,0.273-0.77,0.689-1.426c0.327-0.522,0.709-1.097,1.148-1.719c0.437-0.623,0.857-1.223,1.264-1.801
		c0.404-0.578,0.771-1.075,1.099-1.49c0.33-0.414,0.536-0.676,0.625-0.786C87.788,11.254,87.879,10.998,87.827,10.789z
		 M90.255,5.256c-0.34-0.338-0.761-0.508-1.264-0.508c-0.504,0-0.931,0.17-1.28,0.508s-0.526,0.759-0.526,1.26
		c0,0.502,0.177,0.929,0.526,1.277c0.35,0.349,0.776,0.524,1.28,0.524c0.503,0,0.924-0.175,1.264-0.524
		c0.339-0.349,0.508-0.775,0.508-1.277C90.763,6.015,90.594,5.594,90.255,5.256z"/>
	<path fill="#FFFFFF" d="M90.154,14.343c-0.066,0.437-0.005,0.813,0.181,1.129c0.185,0.317,0.447,0.602,0.787,0.852
		c0.339,0.252,0.655,0.502,0.95,0.754c0.297,0.251,0.531,0.518,0.706,0.802c0.176,0.284,0.187,0.623,0.033,1.016
		c-0.152,0.393-0.372,0.715-0.655,0.965c-0.286,0.253-0.592,0.448-0.919,0.591c-0.329,0.142-0.656,0.223-0.985,0.246
		c-0.329,0.021-0.614-0.023-0.854-0.132c-0.241-0.087-0.359-0.234-0.359-0.441c0-0.208,0.06-0.438,0.18-0.688
		c0.12-0.25,0.278-0.491,0.476-0.72c0.197-0.23,0.372-0.421,0.524-0.574c0.198-0.175,0.231-0.327,0.1-0.459
		c-0.132-0.13-0.328-0.229-0.59-0.293c-0.263-0.065-0.563-0.1-0.902-0.1c-0.34,0-0.62,0.055-0.838,0.164
		c-0.417,0.196-0.762,0.523-1.034,0.982s-0.404,0.933-0.395,1.424c0.013,0.493,0.209,0.945,0.591,1.36
		c0.384,0.414,1.013,0.655,1.889,0.72c0.613,0.044,1.229,0.017,1.854-0.082c0.622-0.099,1.209-0.271,1.755-0.523
		c0.547-0.251,1.051-0.578,1.511-0.981c0.459-0.405,0.831-0.869,1.114-1.393c0.351-0.655,0.499-1.213,0.445-1.671
		c-0.056-0.457-0.214-0.85-0.477-1.179c-0.264-0.327-0.585-0.616-0.969-0.868c-0.383-0.25-0.728-0.484-1.034-0.704
		c-0.307-0.218-0.531-0.452-0.673-0.704c-0.143-0.25-0.104-0.541,0.114-0.868c0.24-0.371,0.58-0.655,1.019-0.852
		c0.437-0.196,0.809-0.272,1.116-0.229c0.065,0.088,0.07,0.192,0.016,0.312c-0.056,0.12-0.137,0.257-0.246,0.41
		c-0.109,0.153-0.229,0.3-0.36,0.441c-0.132,0.143-0.242,0.268-0.329,0.377c-0.153,0.197-0.187,0.35-0.098,0.459
		c0.087,0.109,0.24,0.186,0.46,0.229c0.218,0.043,0.47,0.049,0.753,0.016c0.286-0.032,0.548-0.082,0.789-0.147
		c0.504-0.173,0.957-0.458,1.362-0.852s0.705-0.764,0.902-1.113c0.328-0.589,0.316-0.983-0.033-1.179s-0.831-0.295-1.443-0.295
		c-1.27,0-2.385,0.197-3.349,0.59c-0.963,0.393-1.719,0.938-2.264,1.637C90.492,13.382,90.217,13.907,90.154,14.343z"/>
	<path fill="#FFFFFF" d="M109.797,12.345c0.045-0.393-0.026-0.726-0.213-1c-0.186-0.272-0.464-0.491-0.836-0.654
		c-0.374-0.164-0.811-0.246-1.313-0.246c-1.27,0-2.468,0.284-3.594,0.852c-1.127,0.568-2.118,1.283-2.971,2.145
		c-0.854,0.863-1.542,1.791-2.067,2.784c-0.525,0.992-0.815,1.921-0.87,2.782c-0.055,0.863,0.158,1.578,0.64,2.146
		c0.48,0.568,1.291,0.851,2.43,0.851c0.788,0,1.684-0.251,2.691-0.753c1.006-0.502,2.034-1.129,3.085-1.884
		c1.051-0.753,2.067-1.576,3.052-2.472c0.984-0.895,1.826-1.736,2.528-2.521c0.196-0.239,0.313-0.464,0.345-0.671
		c0.031-0.208-0.006-0.35-0.116-0.426c-0.109-0.076-0.278-0.082-0.509-0.016c-0.229,0.066-0.486,0.262-0.771,0.59
		c-0.743,0.786-1.574,1.554-2.494,2.309c-0.92,0.753-1.826,1.414-2.724,1.98c-0.897,0.567-1.729,1.006-2.494,1.311
		c-0.766,0.306-1.368,0.393-1.805,0.262c-0.438-0.109-0.712-0.365-0.82-0.77c-0.11-0.404-0.1-0.878,0.032-1.425
		c0.897-0.065,1.772-0.218,2.625-0.458c0.854-0.24,1.642-0.535,2.363-0.885c0.723-0.349,1.362-0.741,1.921-1.179
		c0.558-0.437,1.001-0.895,1.328-1.375C109.569,13.164,109.755,12.738,109.797,12.345z M106.565,11.952
		c0.295,0.11,0.46,0.295,0.493,0.556c0.032,0.263-0.056,0.585-0.263,0.967c-0.208,0.382-0.543,0.752-1.001,1.113
		c-0.459,0.361-1.052,0.688-1.773,0.983c-0.721,0.294-1.575,0.495-2.561,0.604c0.198-0.437,0.439-0.873,0.725-1.308
		c0.282-0.438,0.595-0.848,0.935-1.229c0.339-0.382,0.693-0.709,1.065-0.983c0.372-0.272,0.744-0.475,1.115-0.606
		C105.849,11.876,106.27,11.843,106.565,11.952z"/>
</g>
</svg>
